<svg width="164" height="50" viewBox="0 0 164 50" fill="none" xmlns="http://www.w3.org/2000/svg">
<rect width="164" height="50" rx="5" fill="black"/>
<path d="M33.3125 35.35C32.0875 36.5375 30.75 36.35 29.4625 35.7875C28.1 35.2125 26.85 35.1875 25.4125 35.7875C23.6125 36.5625 22.6625 36.3375 21.5875 35.35C15.4875 29.0625 16.3875 19.4875 23.3125 19.1375C25 19.225 26.175 20.0625 27.1625 20.1375C28.6375 19.8375 30.05 18.975 31.625 19.0875C33.5125 19.2375 34.9375 19.9875 35.875 21.3375C31.975 23.675 32.9 28.8125 36.475 30.25C35.7625 32.125 34.8375 33.9875 33.3 35.3625L33.3125 35.35ZM27.0375 19.0625C26.85 16.275 29.1125 13.975 31.7125 13.75C32.075 16.975 28.7875 19.375 27.0375 19.0625Z" fill="white"/>
<g clip-path="url(#clip0_37_956)">
<path d="M58.888 16V7.6H61.468C62.948 7.6 64.036 7.976 64.732 8.728C65.436 9.48 65.788 10.512 65.788 11.824C65.788 13.112 65.436 14.132 64.732 14.884C64.036 15.628 62.948 16 61.468 16H58.888ZM59.896 15.16H61.444C62.26 15.16 62.908 15.028 63.388 14.764C63.876 14.492 64.224 14.108 64.432 13.612C64.64 13.108 64.744 12.512 64.744 11.824C64.744 11.12 64.64 10.516 64.432 10.012C64.224 9.508 63.876 9.12 63.388 8.848C62.908 8.576 62.26 8.44 61.444 8.44H59.896V15.16ZM69.8955 16.144C69.3355 16.144 68.8315 16.016 68.3835 15.76C67.9355 15.504 67.5795 15.144 67.3155 14.68C67.0595 14.208 66.9315 13.656 66.9315 13.024C66.9315 12.392 67.0635 11.844 67.3275 11.38C67.5915 10.908 67.9475 10.544 68.3955 10.288C68.8515 10.032 69.3595 9.904 69.9195 9.904C70.4795 9.904 70.9835 10.032 71.4315 10.288C71.8795 10.544 72.2315 10.908 72.4875 11.38C72.7515 11.844 72.8835 12.392 72.8835 13.024C72.8835 13.656 72.7515 14.208 72.4875 14.68C72.2235 15.144 71.8635 15.504 71.4075 15.76C70.9595 16.016 70.4555 16.144 69.8955 16.144ZM69.8955 15.28C70.2395 15.28 70.5595 15.196 70.8555 15.028C71.1515 14.86 71.3915 14.608 71.5755 14.272C71.7595 13.936 71.8515 13.52 71.8515 13.024C71.8515 12.528 71.7595 12.112 71.5755 11.776C71.3995 11.44 71.1635 11.188 70.8675 11.02C70.5715 10.852 70.2555 10.768 69.9195 10.768C69.5755 10.768 69.2555 10.852 68.9595 11.02C68.6635 11.188 68.4235 11.44 68.2395 11.776C68.0555 12.112 67.9635 12.528 67.9635 13.024C67.9635 13.52 68.0555 13.936 68.2395 14.272C68.4235 14.608 68.6595 14.86 68.9475 15.028C69.2435 15.196 69.5595 15.28 69.8955 15.28ZM75.2624 16L73.5224 10.048H74.5304L75.7904 14.716L77.1824 10.048H78.3224L79.7264 14.716L80.9744 10.048H81.9944L80.2544 16H79.2224L77.7584 11.092L76.2944 16H75.2624ZM83.1093 16V10.048H84.0213L84.0813 11.116C84.2733 10.74 84.5493 10.444 84.9093 10.228C85.2693 10.012 85.6773 9.904 86.1333 9.904C86.8373 9.904 87.3973 10.12 87.8133 10.552C88.2373 10.976 88.4492 11.632 88.4492 12.52V16H87.4413V12.628C87.4413 11.388 86.9293 10.768 85.9053 10.768C85.3933 10.768 84.9653 10.956 84.6213 11.332C84.2853 11.7 84.1173 12.228 84.1173 12.916V16H83.1093ZM89.9764 16V7.36H90.9844V16H89.9764ZM95.3486 16.144C94.7886 16.144 94.2846 16.016 93.8366 15.76C93.3886 15.504 93.0326 15.144 92.7686 14.68C92.5126 14.208 92.3846 13.656 92.3846 13.024C92.3846 12.392 92.5166 11.844 92.7806 11.38C93.0446 10.908 93.4006 10.544 93.8486 10.288C94.3046 10.032 94.8126 9.904 95.3726 9.904C95.9326 9.904 96.4366 10.032 96.8846 10.288C97.3326 10.544 97.6846 10.908 97.9406 11.38C98.2046 11.844 98.3366 12.392 98.3366 13.024C98.3366 13.656 98.2046 14.208 97.9406 14.68C97.6766 15.144 97.3166 15.504 96.8606 15.76C96.4126 16.016 95.9086 16.144 95.3486 16.144ZM95.3486 15.28C95.6926 15.28 96.0126 15.196 96.3086 15.028C96.6046 14.86 96.8446 14.608 97.0286 14.272C97.2126 13.936 97.3046 13.52 97.3046 13.024C97.3046 12.528 97.2126 12.112 97.0286 11.776C96.8526 11.44 96.6166 11.188 96.3206 11.02C96.0246 10.852 95.7086 10.768 95.3726 10.768C95.0286 10.768 94.7086 10.852 94.4126 11.02C94.1166 11.188 93.8766 11.44 93.6926 11.776C93.5086 12.112 93.4166 12.528 93.4166 13.024C93.4166 13.52 93.5086 13.936 93.6926 14.272C93.8766 14.608 94.1126 14.86 94.4006 15.028C94.6966 15.196 95.0126 15.28 95.3486 15.28ZM101.718 16.144C101.222 16.144 100.81 16.06 100.482 15.892C100.154 15.724 99.9102 15.5 99.7502 15.22C99.5902 14.94 99.5102 14.636 99.5102 14.308C99.5102 13.7 99.7422 13.232 100.206 12.904C100.67 12.576 101.302 12.412 102.102 12.412H103.71V12.34C103.71 11.82 103.574 11.428 103.302 11.164C103.03 10.892 102.666 10.756 102.21 10.756C101.818 10.756 101.478 10.856 101.19 11.056C100.91 11.248 100.734 11.532 100.662 11.908H99.6302C99.6702 11.476 99.8142 11.112 100.062 10.816C100.318 10.52 100.634 10.296 101.01 10.144C101.386 9.984 101.786 9.904 102.21 9.904C103.042 9.904 103.666 10.128 104.082 10.576C104.506 11.016 104.718 11.604 104.718 12.34V16H103.818L103.758 14.932C103.59 15.268 103.342 15.556 103.014 15.796C102.694 16.028 102.262 16.144 101.718 16.144ZM101.874 15.292C102.258 15.292 102.586 15.192 102.858 14.992C103.138 14.792 103.35 14.532 103.494 14.212C103.638 13.892 103.71 13.556 103.71 13.204V13.192H102.186C101.594 13.192 101.174 13.296 100.926 13.504C100.686 13.704 100.566 13.956 100.566 14.26C100.566 14.572 100.678 14.824 100.902 15.016C101.134 15.2 101.458 15.292 101.874 15.292ZM108.93 16.144C108.338 16.144 107.818 16.008 107.37 15.736C106.93 15.464 106.586 15.092 106.338 14.62C106.098 14.148 105.978 13.612 105.978 13.012C105.978 12.412 106.102 11.88 106.35 11.416C106.598 10.944 106.942 10.576 107.382 10.312C107.822 10.04 108.342 9.904 108.942 9.904C109.43 9.904 109.862 10.004 110.238 10.204C110.614 10.404 110.906 10.684 111.114 11.044V7.36H112.122V16H111.21L111.114 15.016C110.922 15.304 110.646 15.564 110.286 15.796C109.926 16.028 109.474 16.144 108.93 16.144ZM109.038 15.268C109.438 15.268 109.79 15.176 110.094 14.992C110.406 14.8 110.646 14.536 110.814 14.2C110.99 13.864 111.078 13.472 111.078 13.024C111.078 12.576 110.99 12.184 110.814 11.848C110.646 11.512 110.406 11.252 110.094 11.068C109.79 10.876 109.438 10.78 109.038 10.78C108.646 10.78 108.294 10.876 107.982 11.068C107.678 11.252 107.438 11.512 107.262 11.848C107.094 12.184 107.01 12.576 107.01 13.024C107.01 13.472 107.094 13.864 107.262 14.2C107.438 14.536 107.678 14.8 107.982 14.992C108.294 15.176 108.646 15.268 109.038 15.268ZM119.653 16.144C119.093 16.144 118.589 16.016 118.141 15.76C117.693 15.504 117.337 15.144 117.073 14.68C116.817 14.208 116.689 13.656 116.689 13.024C116.689 12.392 116.821 11.844 117.085 11.38C117.349 10.908 117.705 10.544 118.153 10.288C118.609 10.032 119.117 9.904 119.677 9.904C120.237 9.904 120.741 10.032 121.189 10.288C121.637 10.544 121.989 10.908 122.245 11.38C122.509 11.844 122.641 12.392 122.641 13.024C122.641 13.656 122.509 14.208 122.245 14.68C121.981 15.144 121.621 15.504 121.165 15.76C120.717 16.016 120.213 16.144 119.653 16.144ZM119.653 15.28C119.997 15.28 120.317 15.196 120.613 15.028C120.909 14.86 121.149 14.608 121.333 14.272C121.517 13.936 121.609 13.52 121.609 13.024C121.609 12.528 121.517 12.112 121.333 11.776C121.157 11.44 120.921 11.188 120.625 11.02C120.329 10.852 120.013 10.768 119.677 10.768C119.333 10.768 119.013 10.852 118.717 11.02C118.421 11.188 118.181 11.44 117.997 11.776C117.813 12.112 117.721 12.528 117.721 13.024C117.721 13.52 117.813 13.936 117.997 14.272C118.181 14.608 118.417 14.86 118.705 15.028C119.001 15.196 119.317 15.28 119.653 15.28ZM124.043 16V10.048H124.955L125.015 11.116C125.207 10.74 125.483 10.444 125.843 10.228C126.203 10.012 126.611 9.904 127.067 9.904C127.771 9.904 128.331 10.12 128.747 10.552C129.171 10.976 129.383 11.632 129.383 12.52V16H128.375V12.628C128.375 11.388 127.863 10.768 126.839 10.768C126.327 10.768 125.899 10.956 125.555 11.332C125.219 11.7 125.051 12.228 125.051 12.916V16H124.043ZM136.438 16C135.894 16 135.466 15.868 135.154 15.604C134.842 15.34 134.686 14.864 134.686 14.176V10.9H133.654V10.048H134.686L134.818 8.62H135.694V10.048H137.446V10.9H135.694V14.176C135.694 14.552 135.77 14.808 135.922 14.944C136.074 15.072 136.342 15.136 136.726 15.136H137.35V16H136.438ZM138.726 16V7.36H139.734V11.068C139.934 10.7 140.218 10.416 140.586 10.216C140.954 10.008 141.354 9.904 141.786 9.904C142.474 9.904 143.026 10.12 143.442 10.552C143.858 10.976 144.066 11.632 144.066 12.52V16H143.07V12.628C143.07 11.388 142.57 10.768 141.57 10.768C141.05 10.768 140.614 10.956 140.262 11.332C139.91 11.7 139.734 12.228 139.734 12.916V16H138.726ZM148.27 16.144C147.702 16.144 147.198 16.016 146.758 15.76C146.318 15.496 145.97 15.132 145.714 14.668C145.466 14.204 145.342 13.656 145.342 13.024C145.342 12.4 145.466 11.856 145.714 11.392C145.962 10.92 146.306 10.556 146.746 10.3C147.194 10.036 147.71 9.904 148.294 9.904C148.87 9.904 149.366 10.036 149.782 10.3C150.206 10.556 150.53 10.896 150.754 11.32C150.978 11.744 151.09 12.2 151.09 12.688C151.09 12.776 151.086 12.864 151.078 12.952C151.078 13.04 151.078 13.14 151.078 13.252H146.338C146.362 13.708 146.466 14.088 146.65 14.392C146.842 14.688 147.078 14.912 147.358 15.064C147.646 15.216 147.95 15.292 148.27 15.292C148.686 15.292 149.034 15.196 149.314 15.004C149.594 14.812 149.798 14.552 149.926 14.224H150.922C150.762 14.776 150.454 15.236 149.998 15.604C149.55 15.964 148.974 16.144 148.27 16.144ZM148.27 10.756C147.79 10.756 147.362 10.904 146.986 11.2C146.618 11.488 146.406 11.912 146.35 12.472H150.094C150.07 11.936 149.886 11.516 149.542 11.212C149.198 10.908 148.774 10.756 148.27 10.756Z" fill="white"/>
<path d="M58.6 40L63.76 26H65.54L70.68 40H68.9L67.62 36.4H61.66L60.36 40H58.6ZM62.16 35.04H67.12L64.64 28.12L62.16 35.04ZM72.6613 44.4V30.08H74.1813L74.3413 31.72C74.6613 31.24 75.1146 30.8067 75.7013 30.42C76.3013 30.0333 77.0613 29.84 77.9813 29.84C78.9679 29.84 79.8279 30.0667 80.5613 30.52C81.2946 30.9733 81.8613 31.5933 82.2613 32.38C82.6746 33.1667 82.8813 34.06 82.8813 35.06C82.8813 36.06 82.6746 36.9533 82.2613 37.74C81.8613 38.5133 81.2879 39.1267 80.5413 39.58C79.8079 40.02 78.9479 40.24 77.9613 40.24C77.1479 40.24 76.4213 40.0733 75.7813 39.74C75.1546 39.4067 74.6746 38.94 74.3413 38.34V44.4H72.6613ZM77.7813 38.78C78.4479 38.78 79.0346 38.6267 79.5413 38.32C80.0479 38 80.4479 37.56 80.7413 37C81.0346 36.44 81.1813 35.7867 81.1813 35.04C81.1813 34.2933 81.0346 33.64 80.7413 33.08C80.4479 32.52 80.0479 32.0867 79.5413 31.78C79.0346 31.46 78.4479 31.3 77.7813 31.3C77.1146 31.3 76.5279 31.46 76.0213 31.78C75.5146 32.0867 75.1146 32.52 74.8213 33.08C74.5279 33.64 74.3813 34.2933 74.3813 35.04C74.3813 35.7867 74.5279 36.44 74.8213 37C75.1146 37.56 75.5146 38 76.0213 38.32C76.5279 38.6267 77.1146 38.78 77.7813 38.78ZM85.2198 44.4V30.08H86.7398L86.8998 31.72C87.2198 31.24 87.6732 30.8067 88.2598 30.42C88.8598 30.0333 89.6198 29.84 90.5398 29.84C91.5265 29.84 92.3865 30.0667 93.1198 30.52C93.8532 30.9733 94.4198 31.5933 94.8198 32.38C95.2332 33.1667 95.4398 34.06 95.4398 35.06C95.4398 36.06 95.2332 36.9533 94.8198 37.74C94.4198 38.5133 93.8465 39.1267 93.0998 39.58C92.3665 40.02 91.5065 40.24 90.5198 40.24C89.7065 40.24 88.9798 40.0733 88.3398 39.74C87.7132 39.4067 87.2332 38.94 86.8998 38.34V44.4H85.2198ZM90.3398 38.78C91.0065 38.78 91.5932 38.6267 92.0998 38.32C92.6065 38 93.0065 37.56 93.2998 37C93.5932 36.44 93.7398 35.7867 93.7398 35.04C93.7398 34.2933 93.5932 33.64 93.2998 33.08C93.0065 32.52 92.6065 32.0867 92.0998 31.78C91.5932 31.46 91.0065 31.3 90.3398 31.3C89.6732 31.3 89.0865 31.46 88.5798 31.78C88.0732 32.0867 87.6732 32.52 87.3798 33.08C87.0865 33.64 86.9398 34.2933 86.9398 35.04C86.9398 35.7867 87.0865 36.44 87.3798 37C87.6732 37.56 88.0732 38 88.5798 38.32C89.0865 38.6267 89.6732 38.78 90.3398 38.78ZM107.631 40.24C106.605 40.24 105.711 40.0533 104.951 39.68C104.191 39.3067 103.605 38.7867 103.191 38.12C102.778 37.4533 102.571 36.68 102.571 35.8H104.331C104.331 36.3467 104.458 36.8533 104.711 37.32C104.965 37.7733 105.331 38.14 105.811 38.42C106.305 38.6867 106.911 38.82 107.631 38.82C108.578 38.82 109.311 38.5933 109.831 38.14C110.351 37.6867 110.611 37.12 110.611 36.44C110.611 35.88 110.491 35.4333 110.251 35.1C110.011 34.7533 109.685 34.4733 109.271 34.26C108.871 34.0467 108.405 33.86 107.871 33.7C107.351 33.54 106.805 33.36 106.231 33.16C105.151 32.7867 104.351 32.3267 103.831 31.78C103.311 31.22 103.051 30.4933 103.051 29.6C103.038 28.8533 103.211 28.1933 103.571 27.62C103.931 27.0333 104.438 26.58 105.091 26.26C105.758 25.9267 106.545 25.76 107.451 25.76C108.345 25.76 109.118 25.9267 109.771 26.26C110.438 26.5933 110.951 27.0533 111.311 27.64C111.685 28.2267 111.878 28.8933 111.891 29.64H110.131C110.131 29.2533 110.031 28.8733 109.831 28.5C109.631 28.1133 109.325 27.8 108.911 27.56C108.511 27.32 108.005 27.2 107.391 27.2C106.631 27.1867 106.005 27.38 105.511 27.78C105.031 28.18 104.791 28.7333 104.791 29.44C104.791 30.04 104.958 30.5 105.291 30.82C105.638 31.14 106.118 31.4067 106.731 31.62C107.345 31.82 108.051 32.0533 108.851 32.32C109.518 32.56 110.118 32.84 110.651 33.16C111.185 33.48 111.598 33.8933 111.891 34.4C112.198 34.9067 112.351 35.5533 112.351 36.34C112.351 37.0067 112.178 37.64 111.831 38.24C111.485 38.8267 110.958 39.3067 110.251 39.68C109.558 40.0533 108.685 40.24 107.631 40.24ZM118.554 40C117.647 40 116.934 39.78 116.414 39.34C115.894 38.9 115.634 38.1067 115.634 36.96V31.5H113.914V30.08H115.634L115.854 27.7H117.314V30.08H120.234V31.5H117.314V36.96C117.314 37.5867 117.441 38.0133 117.694 38.24C117.947 38.4533 118.394 38.56 119.034 38.56H120.074V40H118.554ZM126.615 40.24C125.682 40.24 124.842 40.0267 124.095 39.6C123.348 39.1733 122.755 38.5733 122.315 37.8C121.888 37.0133 121.675 36.0933 121.675 35.04C121.675 33.9867 121.895 33.0733 122.335 32.3C122.775 31.5133 123.368 30.9067 124.115 30.48C124.875 30.0533 125.722 29.84 126.655 29.84C127.588 29.84 128.428 30.0533 129.175 30.48C129.922 30.9067 130.508 31.5133 130.935 32.3C131.375 33.0733 131.595 33.9867 131.595 35.04C131.595 36.0933 131.375 37.0133 130.935 37.8C130.495 38.5733 129.895 39.1733 129.135 39.6C128.388 40.0267 127.548 40.24 126.615 40.24ZM126.615 38.8C127.188 38.8 127.722 38.66 128.215 38.38C128.708 38.1 129.108 37.68 129.415 37.12C129.722 36.56 129.875 35.8667 129.875 35.04C129.875 34.2133 129.722 33.52 129.415 32.96C129.122 32.4 128.728 31.98 128.235 31.7C127.742 31.42 127.215 31.28 126.655 31.28C126.082 31.28 125.548 31.42 125.055 31.7C124.562 31.98 124.162 32.4 123.855 32.96C123.548 33.52 123.395 34.2133 123.395 35.04C123.395 35.8667 123.548 36.56 123.855 37.12C124.162 37.68 124.555 38.1 125.035 38.38C125.528 38.66 126.055 38.8 126.615 38.8ZM133.931 40V30.08H135.451L135.591 31.98C135.897 31.3267 136.364 30.8067 136.991 30.42C137.617 30.0333 138.391 29.84 139.311 29.84V31.6H138.851C138.264 31.6 137.724 31.7067 137.231 31.92C136.737 32.12 136.344 32.4667 136.051 32.96C135.757 33.4533 135.611 34.1333 135.611 35V40H133.931ZM145.285 40.24C144.339 40.24 143.499 40.0267 142.765 39.6C142.032 39.16 141.452 38.5533 141.025 37.78C140.612 37.0067 140.405 36.0933 140.405 35.04C140.405 34 140.612 33.0933 141.025 32.32C141.439 31.5333 142.012 30.9267 142.745 30.5C143.492 30.06 144.352 29.84 145.325 29.84C146.285 29.84 147.112 30.06 147.805 30.5C148.512 30.9267 149.052 31.4933 149.425 32.2C149.799 32.9067 149.985 33.6667 149.985 34.48C149.985 34.6267 149.979 34.7733 149.965 34.92C149.965 35.0667 149.965 35.2333 149.965 35.42H142.065C142.105 36.18 142.279 36.8133 142.585 37.32C142.905 37.8133 143.299 38.1867 143.765 38.44C144.245 38.6933 144.752 38.82 145.285 38.82C145.979 38.82 146.559 38.66 147.025 38.34C147.492 38.02 147.832 37.5867 148.045 37.04H149.705C149.439 37.96 148.925 38.7267 148.165 39.34C147.419 39.94 146.459 40.24 145.285 40.24ZM145.285 31.26C144.485 31.26 143.772 31.5067 143.145 32C142.532 32.48 142.179 33.1867 142.085 34.12H148.325C148.285 33.2267 147.979 32.5267 147.405 32.02C146.832 31.5133 146.125 31.26 145.285 31.26Z" fill="white"/>
</g>
<defs>
<clipPath id="clip0_37_956">
<rect x="58" y="4" width="94" height="42" rx="5" fill="white"/>
</clipPath>
</defs>
</svg>
