<svg width="179" height="50" viewBox="0 0 179 50" fill="none" xmlns="http://www.w3.org/2000/svg">
<rect width="179" height="50" rx="5" fill="black"/>
<g clip-path="url(#clip0_37_952)">
<path d="M26.0101 24.2285L12.1242 38.7768C12.2801 39.3294 12.5604 39.839 12.9435 40.2667C13.3265 40.6945 13.8024 41.0289 14.3345 41.2446C14.8667 41.4602 15.4411 41.5514 16.0139 41.511C16.5867 41.4706 17.1426 41.2998 17.6393 41.0116L33.2635 32.1131L26.0101 24.2285Z" fill="#EA4335"/>
<path d="M40.0512 21.7555L33.2947 17.8855L25.6895 24.5593L33.3257 32.0921L40.0307 28.2636C40.6246 27.9526 41.1222 27.4849 41.4693 26.9113C41.8164 26.3377 42 25.68 42 25.0095C42 24.339 41.8164 23.6813 41.4693 23.1077C41.1222 22.5341 40.6246 22.0664 40.0307 21.7554H40.0514L40.0512 21.7555Z" fill="#FBBC04"/>
<path d="M12.1242 11.1704C12.0403 11.4807 11.9985 11.8009 12 12.1223V37.8247C12.0009 38.146 12.0426 38.4659 12.1242 38.7767L26.4861 24.601L12.1242 11.1704Z" fill="#4285F4"/>
<path d="M26.1136 24.9735L33.2946 17.8857L17.6911 8.94567C17.104 8.60185 16.4363 8.41977 15.756 8.41798C14.0676 8.41469 12.5833 9.53524 12.1242 11.16L26.1136 24.9735Z" fill="#34A853"/>
</g>
<path d="M62.5 16.144C61.716 16.144 61.028 15.964 60.436 15.604C59.844 15.236 59.384 14.728 59.056 14.08C58.728 13.424 58.564 12.668 58.564 11.812C58.564 10.956 58.728 10.2 59.056 9.544C59.392 8.888 59.864 8.376 60.472 8.008C61.088 7.64 61.812 7.456 62.644 7.456C63.588 7.456 64.372 7.684 64.996 8.14C65.628 8.596 66.036 9.224 66.22 10.024H65.056C64.944 9.52 64.676 9.12 64.252 8.824C63.836 8.528 63.3 8.38 62.644 8.38C62.028 8.38 61.492 8.52 61.036 8.8C60.58 9.072 60.224 9.464 59.968 9.976C59.72 10.488 59.596 11.1 59.596 11.812C59.596 12.524 59.72 13.136 59.968 13.648C60.216 14.16 60.56 14.556 61 14.836C61.44 15.108 61.952 15.244 62.536 15.244C63.432 15.244 64.108 14.984 64.564 14.464C65.02 13.936 65.28 13.216 65.344 12.304H62.92V11.512H66.376V16H65.452L65.368 14.62C65.064 15.108 64.692 15.484 64.252 15.748C63.812 16.012 63.228 16.144 62.5 16.144ZM67.97 16V7.6H73.166V8.428H68.978V11.356H72.806V12.172H68.978V15.172H73.166V16H67.97ZM76.7115 16V8.428H74.2035V7.6H80.2275V8.428H77.7195V16H76.7115ZM84.6341 16V7.6H85.6421V16H84.6341ZM89.3912 16V8.428H86.8832V7.6H92.9072V8.428H90.3992V16H89.3912ZM101.13 16.144C100.306 16.144 99.5818 15.964 98.9578 15.604C98.3418 15.236 97.8578 14.724 97.5058 14.068C97.1618 13.412 96.9898 12.656 96.9898 11.8C96.9898 10.944 97.1618 10.192 97.5058 9.544C97.8578 8.888 98.3418 8.376 98.9578 8.008C99.5818 7.64 100.306 7.456 101.13 7.456C101.962 7.456 102.686 7.64 103.302 8.008C103.926 8.376 104.41 8.888 104.754 9.544C105.098 10.192 105.27 10.944 105.27 11.8C105.27 12.656 105.098 13.412 104.754 14.068C104.41 14.724 103.926 15.236 103.302 15.604C102.686 15.964 101.962 16.144 101.13 16.144ZM101.13 15.256C101.746 15.256 102.286 15.12 102.75 14.848C103.222 14.568 103.586 14.172 103.842 13.66C104.106 13.14 104.238 12.52 104.238 11.8C104.238 11.08 104.106 10.464 103.842 9.952C103.586 9.44 103.222 9.048 102.75 8.776C102.286 8.496 101.746 8.356 101.13 8.356C100.514 8.356 99.9698 8.496 99.4978 8.776C99.0338 9.048 98.6698 9.44 98.4058 9.952C98.1498 10.464 98.0218 11.08 98.0218 11.8C98.0218 12.52 98.1498 13.14 98.4058 13.66C98.6698 14.172 99.0338 14.568 99.4978 14.848C99.9698 15.12 100.514 15.256 101.13 15.256ZM106.724 16V7.6H107.732L112.208 14.332V7.6H113.216V16H112.208L107.732 9.268V16H106.724Z" fill="white"/>
<path d="M65.5 40.24C64.1933 40.24 63.0467 39.94 62.06 39.34C61.0733 38.7267 60.3067 37.88 59.76 36.8C59.2133 35.7067 58.94 34.4467 58.94 33.02C58.94 31.5933 59.2133 30.3333 59.76 29.24C60.32 28.1467 61.1067 27.2933 62.12 26.68C63.1467 26.0667 64.3533 25.76 65.74 25.76C67.3133 25.76 68.62 26.14 69.66 26.9C70.7133 27.66 71.3933 28.7067 71.7 30.04H69.76C69.5733 29.2 69.1267 28.5333 68.42 28.04C67.7267 27.5467 66.8333 27.3 65.74 27.3C64.7133 27.3 63.82 27.5333 63.06 28C62.3 28.4533 61.7067 29.1067 61.28 29.96C60.8667 30.8133 60.66 31.8333 60.66 33.02C60.66 34.2067 60.8667 35.2267 61.28 36.08C61.6933 36.9333 62.2667 37.5933 63 38.06C63.7333 38.5133 64.5867 38.74 65.56 38.74C67.0533 38.74 68.18 38.3067 68.94 37.44C69.7 36.56 70.1333 35.36 70.24 33.84H66.2V32.52H71.96V40H70.42L70.28 37.7C69.7733 38.5133 69.1533 39.14 68.42 39.58C67.6867 40.02 66.7133 40.24 65.5 40.24ZM79.0367 40.24C78.1034 40.24 77.2634 40.0267 76.5167 39.6C75.7701 39.1733 75.1767 38.5733 74.7367 37.8C74.3101 37.0133 74.0967 36.0933 74.0967 35.04C74.0967 33.9867 74.3167 33.0733 74.7567 32.3C75.1967 31.5133 75.7901 30.9067 76.5367 30.48C77.2967 30.0533 78.1434 29.84 79.0767 29.84C80.0101 29.84 80.8501 30.0533 81.5967 30.48C82.3434 30.9067 82.9301 31.5133 83.3567 32.3C83.7967 33.0733 84.0167 33.9867 84.0167 35.04C84.0167 36.0933 83.7967 37.0133 83.3567 37.8C82.9167 38.5733 82.3167 39.1733 81.5567 39.6C80.8101 40.0267 79.9701 40.24 79.0367 40.24ZM79.0367 38.8C79.6101 38.8 80.1434 38.66 80.6367 38.38C81.1301 38.1 81.5301 37.68 81.8367 37.12C82.1434 36.56 82.2967 35.8667 82.2967 35.04C82.2967 34.2133 82.1434 33.52 81.8367 32.96C81.5434 32.4 81.1501 31.98 80.6567 31.7C80.1634 31.42 79.6367 31.28 79.0767 31.28C78.5034 31.28 77.9701 31.42 77.4767 31.7C76.9834 31.98 76.5834 32.4 76.2767 32.96C75.9701 33.52 75.8167 34.2133 75.8167 35.04C75.8167 35.8667 75.9701 36.56 76.2767 37.12C76.5834 37.68 76.9767 38.1 77.4567 38.38C77.9501 38.66 78.4767 38.8 79.0367 38.8ZM90.8727 40.24C89.9393 40.24 89.0993 40.0267 88.3527 39.6C87.606 39.1733 87.0127 38.5733 86.5727 37.8C86.146 37.0133 85.9327 36.0933 85.9327 35.04C85.9327 33.9867 86.1527 33.0733 86.5927 32.3C87.0327 31.5133 87.626 30.9067 88.3727 30.48C89.1327 30.0533 89.9793 29.84 90.9127 29.84C91.846 29.84 92.686 30.0533 93.4327 30.48C94.1793 30.9067 94.766 31.5133 95.1927 32.3C95.6327 33.0733 95.8527 33.9867 95.8527 35.04C95.8527 36.0933 95.6327 37.0133 95.1927 37.8C94.7527 38.5733 94.1527 39.1733 93.3927 39.6C92.646 40.0267 91.806 40.24 90.8727 40.24ZM90.8727 38.8C91.446 38.8 91.9793 38.66 92.4727 38.38C92.966 38.1 93.366 37.68 93.6727 37.12C93.9793 36.56 94.1327 35.8667 94.1327 35.04C94.1327 34.2133 93.9793 33.52 93.6727 32.96C93.3793 32.4 92.986 31.98 92.4927 31.7C91.9993 31.42 91.4727 31.28 90.9127 31.28C90.3393 31.28 89.806 31.42 89.3127 31.7C88.8193 31.98 88.4193 32.4 88.1127 32.96C87.806 33.52 87.6527 34.2133 87.6527 35.04C87.6527 35.8667 87.806 36.56 88.1127 37.12C88.4193 37.68 88.8127 38.1 89.2927 38.38C89.786 38.66 90.3127 38.8 90.8727 38.8ZM101.679 36.88C101.119 36.88 100.606 36.8067 100.139 36.66L99.1389 37.6C99.2856 37.7067 99.4656 37.8 99.6789 37.88C99.9056 37.9467 100.226 38.0133 100.639 38.08C101.052 38.1333 101.632 38.1933 102.379 38.26C103.712 38.3533 104.666 38.66 105.239 39.18C105.812 39.7 106.099 40.38 106.099 41.22C106.099 41.7933 105.939 42.34 105.619 42.86C105.312 43.38 104.832 43.8067 104.179 44.14C103.539 44.4733 102.712 44.64 101.699 44.64C100.806 44.64 100.012 44.52 99.3189 44.28C98.6256 44.0533 98.0856 43.7 97.6989 43.22C97.3122 42.7533 97.1189 42.16 97.1189 41.44C97.1189 41.0667 97.2189 40.66 97.4189 40.22C97.6189 39.7933 97.9922 39.3867 98.5389 39C98.2456 38.88 97.9922 38.7533 97.7789 38.62C97.5789 38.4733 97.3922 38.3133 97.2189 38.14V37.68L98.9189 36C98.1322 35.3333 97.7389 34.4533 97.7389 33.36C97.7389 32.7067 97.8922 32.1133 98.1989 31.58C98.5056 31.0467 98.9522 30.6267 99.5389 30.32C100.126 30 100.839 29.84 101.679 29.84C102.252 29.84 102.772 29.92 103.239 30.08H106.899V31.34L105.039 31.42C105.426 31.98 105.619 32.6267 105.619 33.36C105.619 34.0133 105.459 34.6067 105.139 35.14C104.832 35.6733 104.386 36.1 103.799 36.42C103.226 36.7267 102.519 36.88 101.679 36.88ZM101.679 35.5C102.386 35.5 102.946 35.32 103.359 34.96C103.786 34.5867 103.999 34.0533 103.999 33.36C103.999 32.68 103.786 32.16 103.359 31.8C102.946 31.4267 102.386 31.24 101.679 31.24C100.959 31.24 100.386 31.4267 99.9589 31.8C99.5456 32.16 99.3389 32.68 99.3389 33.36C99.3389 34.0533 99.5456 34.5867 99.9589 34.96C100.386 35.32 100.959 35.5 101.679 35.5ZM98.7589 41.28C98.7589 41.9467 99.0389 42.44 99.5989 42.76C100.159 43.0933 100.859 43.26 101.699 43.26C102.526 43.26 103.186 43.08 103.679 42.72C104.186 42.36 104.439 41.88 104.439 41.28C104.439 40.8533 104.266 40.48 103.919 40.16C103.572 39.8533 102.932 39.6733 101.999 39.62C101.266 39.5667 100.632 39.5 100.099 39.42C99.5522 39.7133 99.1922 40.0267 99.0189 40.36C98.8456 40.7067 98.7589 41.0133 98.7589 41.28ZM108.794 40V25.6H110.474V40H108.794ZM117.688 40.24C116.741 40.24 115.901 40.0267 115.168 39.6C114.434 39.16 113.854 38.5533 113.428 37.78C113.014 37.0067 112.808 36.0933 112.808 35.04C112.808 34 113.014 33.0933 113.428 32.32C113.841 31.5333 114.414 30.9267 115.148 30.5C115.894 30.06 116.754 29.84 117.728 29.84C118.688 29.84 119.514 30.06 120.208 30.5C120.914 30.9267 121.454 31.4933 121.828 32.2C122.201 32.9067 122.388 33.6667 122.388 34.48C122.388 34.6267 122.381 34.7733 122.368 34.92C122.368 35.0667 122.368 35.2333 122.368 35.42H114.468C114.508 36.18 114.681 36.8133 114.988 37.32C115.308 37.8133 115.701 38.1867 116.168 38.44C116.648 38.6933 117.154 38.82 117.688 38.82C118.381 38.82 118.961 38.66 119.428 38.34C119.894 38.02 120.234 37.5867 120.448 37.04H122.108C121.841 37.96 121.328 38.7267 120.568 39.34C119.821 39.94 118.861 40.24 117.688 40.24ZM117.688 31.26C116.888 31.26 116.174 31.5067 115.548 32C114.934 32.48 114.581 33.1867 114.488 34.12H120.728C120.688 33.2267 120.381 32.5267 119.808 32.02C119.234 31.5133 118.528 31.26 117.688 31.26ZM130.007 40V26H134.607C135.701 26 136.601 26.18 137.307 26.54C138.014 26.9 138.534 27.3867 138.867 28C139.214 28.6133 139.387 29.3067 139.387 30.08C139.387 30.84 139.221 31.5267 138.887 32.14C138.554 32.7533 138.034 33.2467 137.327 33.62C136.621 33.98 135.714 34.16 134.607 34.16H131.687V40H130.007ZM131.687 32.74H134.567C135.687 32.74 136.481 32.5067 136.947 32.04C137.427 31.56 137.667 30.9067 137.667 30.08C137.667 29.24 137.427 28.5867 136.947 28.12C136.481 27.64 135.687 27.4 134.567 27.4H131.687V32.74ZM141.489 40V25.6H143.169V40H141.489ZM149.223 40.24C148.396 40.24 147.71 40.1 147.163 39.82C146.616 39.54 146.21 39.1667 145.943 38.7C145.676 38.2333 145.543 37.7267 145.543 37.18C145.543 36.1667 145.93 35.3867 146.703 34.84C147.476 34.2933 148.53 34.02 149.863 34.02H152.543V33.9C152.543 33.0333 152.316 32.38 151.863 31.94C151.41 31.4867 150.803 31.26 150.043 31.26C149.39 31.26 148.823 31.4267 148.343 31.76C147.876 32.08 147.583 32.5533 147.463 33.18H145.743C145.81 32.46 146.05 31.8533 146.463 31.36C146.89 30.8667 147.416 30.4933 148.043 30.24C148.67 29.9733 149.336 29.84 150.043 29.84C151.43 29.84 152.47 30.2133 153.163 30.96C153.87 31.6933 154.223 32.6733 154.223 33.9V40H152.723L152.623 38.22C152.343 38.78 151.93 39.26 151.383 39.66C150.85 40.0467 150.13 40.24 149.223 40.24ZM149.483 38.82C150.123 38.82 150.67 38.6533 151.123 38.32C151.59 37.9867 151.943 37.5533 152.183 37.02C152.423 36.4867 152.543 35.9267 152.543 35.34V35.32H150.003C149.016 35.32 148.316 35.4933 147.903 35.84C147.503 36.1733 147.303 36.5933 147.303 37.1C147.303 37.62 147.49 38.04 147.863 38.36C148.25 38.6667 148.79 38.82 149.483 38.82ZM157.53 44.4L159.99 39.04H159.41L155.47 30.08H157.29L160.57 37.8L164.05 30.08H165.79L159.29 44.4H157.53Z" fill="white"/>
<defs>
<clipPath id="clip0_37_952">
<rect width="30" height="33.1641" fill="white" transform="translate(12 8.41797)"/>
</clipPath>
</defs>
</svg>
