<svg width="194" height="72" viewBox="0 0 194 72" fill="none" xmlns="http://www.w3.org/2000/svg">
<path d="M192.749 4.32434C191.823 1.52798 188.806 0.0112992 186.01 0.936738C183.214 1.86218 181.697 4.87929 182.622 7.67566C183.548 10.472 186.565 11.9887 189.361 11.0633C192.158 10.1378 193.674 7.12071 192.749 4.32434ZM11.0632 64.4521C10.1378 61.6557 7.12066 60.139 4.3243 61.0645C1.52794 61.9899 0.0112559 65.007 0.936695 67.8034C1.86213 70.5998 4.87925 72.1164 7.67561 71.191C10.472 70.2656 11.9887 67.2485 11.0632 64.4521ZM187.371 5.05064L186.425 5.3638L187.053 7.26253L188 6.94936L187.371 5.05064ZM184.533 5.99013L182.64 6.61647L183.268 8.51519L185.161 7.88886L184.533 5.99013ZM180.747 7.2428L178.855 7.86913L179.483 9.76785L181.376 9.14152L180.747 7.2428ZM176.962 8.49546L175.07 9.12179L175.698 11.0205L177.591 10.3942L176.962 8.49546ZM173.177 9.74812L171.285 10.3744L171.913 12.2732L173.806 11.6468L173.177 9.74812ZM169.392 11.0008L167.5 11.6271L168.128 13.5258L170.02 12.8995L169.392 11.0008ZM165.607 12.2534L163.714 12.8798L164.343 14.7785L166.235 14.1522L165.607 12.2534ZM161.822 13.5061L159.929 14.1324L160.558 16.0312L162.45 15.4048L161.822 13.5061ZM158.037 14.7588L156.144 15.3851L156.773 17.2838L158.665 16.6575L158.037 14.7588ZM154.252 16.0114L152.359 16.6378L152.987 18.5365L154.88 17.9101L154.252 16.0114ZM150.466 17.2641L148.574 17.8904L149.202 19.7891L151.095 19.1628L150.466 17.2641ZM146.681 18.5167L144.789 19.1431L145.417 21.0418L147.31 20.4155L146.681 18.5167ZM142.896 19.7694L141.004 20.3957L141.632 22.2945L143.525 21.6681L142.896 19.7694ZM139.111 21.0221L137.219 21.6484L137.847 23.5471L139.739 22.9208L139.111 21.0221ZM135.326 22.2747L133.433 22.9011L134.062 24.7998L135.954 24.1735L135.326 22.2747ZM131.541 23.5274L129.648 24.1537L130.277 26.0525L132.169 25.4261L131.541 23.5274ZM127.756 24.7801L125.863 25.4064L126.492 27.3051L128.384 26.6788L127.756 24.7801ZM123.971 26.0327L122.078 26.6591L122.706 28.5578L124.599 27.9314L123.971 26.0327ZM120.186 27.2854L118.293 27.9117L118.921 29.8104L120.814 29.1841L120.186 27.2854ZM116.4 28.538L114.508 29.1644L115.136 31.0631L117.029 30.4368L116.4 28.538ZM112.615 29.7907L110.723 30.417L111.351 32.3158L113.244 31.6894L112.615 29.7907ZM108.83 31.0434L106.938 31.6697L107.566 33.5684L109.459 32.9421L108.83 31.0434ZM105.045 32.296L103.153 32.9224L103.781 34.8211L105.673 34.1948L105.045 32.296ZM101.26 33.5487L99.3674 34.175L99.9958 36.0737L101.888 35.4474L101.26 33.5487ZM97.4748 34.8014L95.5823 35.4277L96.2106 37.3264L98.1032 36.7001L97.4748 34.8014ZM93.6897 36.054L91.7971 36.6803L92.4255 38.5791L94.3181 37.9527L93.6897 36.054ZM89.9046 37.3067L88.012 37.933L88.6404 39.8317L90.533 39.2054L89.9046 37.3067ZM86.1195 38.5593L84.2269 39.1857L84.8553 41.0844L86.7478 40.4581L86.1195 38.5593ZM82.3343 39.812L80.4418 40.4383L81.0702 42.3371L82.9627 41.7107L82.3343 39.812ZM78.5492 41.0647L76.6567 41.691L77.285 43.5897L79.1776 42.9634L78.5492 41.0647ZM74.7641 42.3173L72.8715 42.9437L73.4999 44.8424L75.3925 44.2161L74.7641 42.3173ZM70.979 43.57L69.0864 44.1963L69.7148 46.095L71.6074 45.4687L70.979 43.57ZM67.1939 44.8227L65.3013 45.449L65.9297 47.3477L67.8222 46.7214L67.1939 44.8227ZM63.4088 46.0753L61.5162 46.7016L62.1446 48.6004L64.0371 47.974L63.4088 46.0753ZM59.6237 47.328L57.7311 47.9543L58.3595 49.853L60.252 49.2267L59.6237 47.328ZM55.8386 48.5806L53.946 49.207L54.5744 51.1057L56.4669 50.4793L55.8386 48.5806ZM52.0535 49.8333L50.1609 50.4596L50.7893 52.3583L52.6818 51.732L52.0535 49.8333ZM48.2684 51.0859L46.3758 51.7123L47.0042 53.611L48.8967 52.9847L48.2684 51.0859ZM44.4833 52.3386L42.5907 52.9649L43.2191 54.8636L45.1116 54.2373L44.4833 52.3386ZM40.6981 53.5913L38.8056 54.2176L39.434 56.1163L41.3265 55.49L40.6981 53.5913ZM36.913 54.8439L35.0205 55.4702L35.6489 57.369L37.5414 56.7426L36.913 54.8439ZM33.1279 56.0966L31.2354 56.7229L31.8638 58.6216L33.7563 57.9953L33.1279 56.0966ZM29.3428 57.3492L27.4503 57.9756L28.0787 59.8743L29.9712 59.2479L29.3428 57.3492ZM25.5577 58.6019L23.6652 59.2282L24.2936 61.1269L26.1861 60.5006L25.5577 58.6019ZM21.7726 59.8545L19.8801 60.4809L20.5084 62.3796L22.401 61.7533L21.7726 59.8545ZM17.9875 61.1072L16.095 61.7335L16.7233 63.6322L18.6159 63.0059L17.9875 61.1072ZM14.2024 62.3599L12.3099 62.9862L12.9382 64.8849L14.8308 64.2586L14.2024 62.3599ZM10.4173 63.6125L8.52476 64.2388L9.15313 66.1376L11.0457 65.5112L10.4173 63.6125ZM6.63221 64.8652L5.68577 65.1784L6.31414 67.0771L7.26058 66.7639L6.63221 64.8652Z" fill="#F0F0F0"/>
</svg>
