<svg width="195" height="68" viewBox="0 0 195 68" fill="none" xmlns="http://www.w3.org/2000/svg">
<path d="M0.900108 4.43938C0.0381999 7.25597 1.62278 10.238 4.43938 11.0999C7.25597 11.9618 10.238 10.3772 11.0999 7.56062C11.9618 4.74403 10.3772 1.76202 7.56062 0.900108C4.74403 0.0381999 1.76202 1.62278 0.900108 4.43938ZM183.9 60.4394C183.038 63.256 184.623 66.238 187.439 67.0999C190.256 67.9618 193.238 66.3772 194.1 63.5606C194.962 60.744 193.377 57.762 190.561 56.9001C187.744 56.0382 184.762 57.6228 183.9 60.4394ZM5.70738 6.95623L6.66051 7.2479L7.24574 5.33544L6.29262 5.04377L5.70738 6.95623ZM8.56676 7.83123L10.473 8.41456L11.0582 6.5021L9.15199 5.91877L8.56676 7.83123ZM12.3793 8.9979L14.2855 9.58123L14.8707 7.66877L12.9645 7.08544L12.3793 8.9979ZM16.1918 10.1646L18.098 10.7479L18.6832 8.83544L16.777 8.2521L16.1918 10.1646ZM20.0043 11.3312L21.9105 11.9146L22.4957 10.0021L20.5895 9.41877L20.0043 11.3312ZM23.8168 12.4979L25.723 13.0812L26.3082 11.1688L24.402 10.5854L23.8168 12.4979ZM27.6293 13.6646L29.5355 14.2479L30.1207 12.3354L28.2145 11.7521L27.6293 13.6646ZM31.4418 14.8312L33.348 15.4146L33.9332 13.5021L32.027 12.9188L31.4418 14.8312ZM35.2543 15.9979L37.1605 16.5812L37.7457 14.6688L35.8395 14.0854L35.2543 15.9979ZM39.0668 17.1646L40.973 17.7479L41.5582 15.8354L39.652 15.2521L39.0668 17.1646ZM42.8793 18.3312L44.7855 18.9146L45.3707 17.0021L43.4645 16.4188L42.8793 18.3312ZM46.6918 19.4979L48.598 20.0812L49.1832 18.1688L47.277 17.5854L46.6918 19.4979ZM50.5043 20.6646L52.4105 21.2479L52.9957 19.3354L51.0895 18.7521L50.5043 20.6646ZM54.3168 21.8312L56.223 22.4146L56.8082 20.5021L54.902 19.9188L54.3168 21.8312ZM58.1293 22.9979L60.0355 23.5812L60.6208 21.6688L58.7145 21.0854L58.1293 22.9979ZM61.9418 24.1646L63.848 24.7479L64.4333 22.8354L62.527 22.2521L61.9418 24.1646ZM65.7543 25.3312L67.6605 25.9146L68.2458 24.0021L66.3395 23.4188L65.7543 25.3312ZM69.5668 26.4979L71.473 27.0812L72.0583 25.1688L70.152 24.5854L69.5668 26.4979ZM73.3793 27.6646L75.2855 28.2479L75.8708 26.3354L73.9645 25.7521L73.3793 27.6646ZM77.1918 28.8312L79.098 29.4146L79.6833 27.5021L77.777 26.9188L77.1918 28.8312ZM81.0043 29.9979L82.9105 30.5812L83.4958 28.6688L81.5895 28.0854L81.0043 29.9979ZM84.8168 31.1646L86.723 31.7479L87.3083 29.8354L85.402 29.2521L84.8168 31.1646ZM88.6293 32.3312L90.5355 32.9146L91.1208 31.0021L89.2145 30.4188L88.6293 32.3312ZM92.4418 33.4979L94.348 34.0812L94.9333 32.1688L93.027 31.5854L92.4418 33.4979ZM96.2543 34.6646L97.2074 34.9562L97.7926 33.0438L96.8395 32.7521L96.2543 34.6646ZM97.2074 34.9562L98.1605 35.2479L98.7457 33.3354L97.7926 33.0438L97.2074 34.9562ZM100.067 35.8312L101.973 36.4146L102.558 34.5021L100.652 33.9188L100.067 35.8312ZM103.879 36.9979L105.786 37.5812L106.371 35.6688L104.464 35.0854L103.879 36.9979ZM107.692 38.1646L109.598 38.7479L110.183 36.8354L108.277 36.2521L107.692 38.1646ZM111.504 39.3312L113.411 39.9146L113.996 38.0021L112.089 37.4188L111.504 39.3312ZM115.317 40.4979L117.223 41.0812L117.808 39.1688L115.902 38.5854L115.317 40.4979ZM119.129 41.6646L121.036 42.2479L121.621 40.3354L119.714 39.7521L119.129 41.6646ZM122.942 42.8312L124.848 43.4146L125.433 41.5021L123.527 40.9188L122.942 42.8312ZM126.754 43.9979L128.661 44.5812L129.246 42.6688L127.339 42.0854L126.754 43.9979ZM130.567 45.1646L132.473 45.7479L133.058 43.8354L131.152 43.2521L130.567 45.1646ZM134.379 46.3312L136.286 46.9146L136.871 45.0021L134.964 44.4188L134.379 46.3312ZM138.192 47.4979L140.098 48.0812L140.683 46.1688L138.777 45.5854L138.192 47.4979ZM142.004 48.6646L143.911 49.2479L144.496 47.3354L142.589 46.7521L142.004 48.6646ZM145.817 49.8312L147.723 50.4146L148.308 48.5021L146.402 47.9188L145.817 49.8312ZM149.629 50.9979L151.536 51.5812L152.121 49.6688L150.214 49.0854L149.629 50.9979ZM153.442 52.1646L155.348 52.7479L155.933 50.8354L154.027 50.2521L153.442 52.1646ZM157.254 53.3312L159.161 53.9146L159.746 52.0021L157.84 51.4188L157.254 53.3312ZM161.067 54.4979L162.973 55.0812L163.558 53.1688L161.652 52.5854L161.067 54.4979ZM164.879 55.6646L166.786 56.2479L167.371 54.3354L165.465 53.7521L164.879 55.6646ZM168.692 56.8312L170.598 57.4146L171.183 55.5021L169.277 54.9188L168.692 56.8312ZM172.504 57.9979L174.411 58.5812L174.996 56.6688L173.09 56.0854L172.504 57.9979ZM176.317 59.1646L178.223 59.7479L178.808 57.8354L176.902 57.2521L176.317 59.1646ZM180.129 60.3312L182.036 60.9146L182.621 59.0021L180.715 58.4188L180.129 60.3312ZM183.942 61.4979L185.848 62.0812L186.433 60.1688L184.527 59.5854L183.942 61.4979ZM187.754 62.6646L188.707 62.9562L189.293 61.0438L188.34 60.7521L187.754 62.6646Z" fill="#F0F0F0"/>
</svg>
