<svg width="134" height="18" viewBox="0 0 134 18" fill="none" xmlns="http://www.w3.org/2000/svg">
<path d="M8.304 17.5L7.8 14.836H4.008L3.504 17.5H0.24L3.48 0.699999H8.448L11.52 17.5H8.304ZM5.856 3.82L4.92 9.412L4.392 12.268H7.392L6.84 9.412L5.904 3.82H5.856ZM12.9176 17.5V0.699999H16.2056V7.78H16.3256L19.3256 0.699999H22.7096L19.2056 8.716L22.8776 17.5H19.2296L16.3736 10.156H16.2056V17.5H12.9176ZM25.563 0.699999H31.323V3.58H26.715L26.643 3.724L30.483 10.732C31.267 12.14 31.659 13.212 31.659 13.948C31.659 15.564 31.123 16.748 30.051 17.5H23.691V14.716H28.659L28.731 14.572L24.411 6.82C23.787 5.7 23.475 4.788 23.475 4.084C23.475 2.42 24.171 1.292 25.563 0.699999ZM34.5557 17.5V2.428H39.4037C41.0597 2.428 42.3237 2.848 43.1957 3.688C44.0757 4.52 44.5157 5.652 44.5157 7.084C44.5157 8.5 44.0757 9.624 43.1957 10.456C42.3237 11.28 41.0597 11.692 39.4037 11.692H36.4517V17.5H34.5557ZM36.4517 10.06H39.4037C40.4517 10.06 41.2437 9.792 41.7797 9.256C42.3237 8.72 42.5957 7.996 42.5957 7.084C42.5957 6.156 42.3237 5.416 41.7797 4.864C41.2437 4.312 40.4517 4.036 39.4037 4.036H36.4517V10.06ZM47.8928 17.5V2.428H53.1488C54.8688 2.428 56.1688 2.84 57.0488 3.664C57.9368 4.48 58.3808 5.556 58.3808 6.892C58.3808 8.212 57.9368 9.284 57.0488 10.108C56.1688 10.924 54.8688 11.332 53.1488 11.332H49.7648V17.5H47.8928ZM56.3408 17.5L52.0208 10.66H54.0608L58.7648 17.5H56.3408ZM49.7648 10.012H53.0048C54.1328 10.012 54.9888 9.736 55.5728 9.184C56.1648 8.624 56.4608 7.9 56.4608 7.012C56.4608 6.1 56.1768 5.376 55.6088 4.84C55.0488 4.304 54.2288 4.036 53.1488 4.036H49.7648V10.012ZM67.9161 17.788C66.6681 17.788 65.5521 17.5 64.5681 16.924C63.5841 16.348 62.8081 15.484 62.2401 14.332C61.6721 13.172 61.3881 11.724 61.3881 9.988C61.3881 8.228 61.6721 6.772 62.2401 5.62C62.8081 4.46 63.5841 3.596 64.5681 3.028C65.5521 2.452 66.6681 2.164 67.9161 2.164C69.1641 2.164 70.2801 2.452 71.2641 3.028C72.2481 3.604 73.0241 4.472 73.5921 5.632C74.1601 6.792 74.4441 8.244 74.4441 9.988C74.4441 11.74 74.1601 13.196 73.5921 14.356C73.0241 15.508 72.2481 16.368 71.2641 16.936C70.2801 17.504 69.1641 17.788 67.9161 17.788ZM67.9161 16.06C69.3321 16.06 70.4481 15.544 71.2641 14.512C72.0881 13.48 72.5001 11.964 72.5001 9.964C72.5001 8.004 72.0881 6.496 71.2641 5.44C70.4481 4.376 69.3321 3.844 67.9161 3.844C66.5161 3.844 65.4001 4.376 64.5681 5.44C63.7441 6.504 63.3321 8.02 63.3321 9.988C63.3321 11.98 63.7441 13.492 64.5681 14.524C65.4001 15.548 66.5161 16.06 67.9161 16.06ZM78.0803 2.428H82.4963C84.0163 2.428 85.3363 2.74 86.4563 3.364C87.5763 3.98 88.4443 4.852 89.0603 5.98C89.6763 7.108 89.9843 8.436 89.9843 9.964C89.9843 11.476 89.6763 12.796 89.0603 13.924C88.4443 15.052 87.5763 15.932 86.4563 16.564C85.3363 17.188 84.0163 17.5 82.4963 17.5H78.0803V2.428ZM79.9523 4.084V15.868H82.4963C83.6323 15.868 84.6083 15.612 85.4243 15.1C86.2483 14.588 86.8803 13.888 87.3203 13C87.7683 12.104 87.9922 11.092 87.9922 9.964C87.9922 8.828 87.7683 7.82 87.3203 6.94C86.8803 6.052 86.2483 5.356 85.4243 4.852C84.6083 4.34 83.6323 4.084 82.4963 4.084H79.9523ZM93.588 2.428H95.46V12.052C95.46 13.468 95.816 14.492 96.528 15.124C97.24 15.748 98.172 16.06 99.324 16.06C100.468 16.06 101.392 15.748 102.096 15.124C102.808 14.492 103.164 13.468 103.164 12.052V2.428H105.036V12.052C105.036 13.316 104.8 14.376 104.328 15.232C103.864 16.08 103.204 16.72 102.348 17.152C101.492 17.576 100.484 17.788 99.324 17.788C98.164 17.788 97.152 17.576 96.288 17.152C95.432 16.72 94.768 16.08 94.296 15.232C93.824 14.376 93.588 13.316 93.588 12.052V2.428ZM114.836 17.788C113.508 17.788 112.364 17.456 111.404 16.792C110.444 16.12 109.704 15.192 109.184 14.008C108.664 12.816 108.404 11.436 108.404 9.868C108.404 8.196 108.684 6.788 109.244 5.644C109.812 4.5 110.58 3.636 111.548 3.052C112.524 2.46 113.62 2.164 114.836 2.164C116.444 2.164 117.736 2.568 118.712 3.376C119.696 4.176 120.372 5.22 120.74 6.508L118.724 6.916C118.412 5.98 117.912 5.236 117.224 4.684C116.544 4.124 115.748 3.844 114.836 3.844C114.044 3.844 113.312 4.072 112.64 4.528C111.976 4.976 111.44 5.648 111.032 6.544C110.624 7.44 110.42 8.548 110.42 9.868C110.42 11.068 110.58 12.136 110.9 13.072C111.228 14.008 111.716 14.744 112.364 15.28C113.02 15.816 113.844 16.084 114.836 16.084C116.028 16.084 116.972 15.764 117.668 15.124C118.372 14.484 118.724 13.644 118.724 12.604H120.764C120.764 13.684 120.516 14.612 120.02 15.388C119.524 16.156 118.828 16.748 117.932 17.164C117.044 17.58 116.012 17.788 114.836 17.788ZM122.042 4.036V2.428H133.778V4.036H128.414L128.834 3.604V17.5H126.962V3.604L127.382 4.036H122.042Z" fill="#D1D7E2"/>
</svg>
