<svg width="30" height="30" viewBox="0 0 30 30" fill="none" xmlns="http://www.w3.org/2000/svg">
<path d="M23.75 13.7501H9.7875L15.8875 7.65008C16.375 7.16258 16.375 6.36258 15.8875 5.87508C15.7719 5.7592 15.6345 5.66726 15.4833 5.60454C15.3321 5.54181 15.17 5.50952 15.0062 5.50952C14.8425 5.50952 14.6804 5.54181 14.5292 5.60454C14.378 5.66726 14.2406 5.7592 14.125 5.87508L5.8875 14.1126C5.77162 14.2282 5.67968 14.3656 5.61696 14.5168C5.55423 14.668 5.52194 14.8301 5.52194 14.9938C5.52194 15.1575 5.55423 15.3196 5.61696 15.4709C5.67968 15.6221 5.77162 15.7594 5.8875 15.8751L14.125 24.1126C14.2407 24.2283 14.3781 24.3201 14.5293 24.3827C14.6805 24.4454 14.8426 24.4776 15.0062 24.4776C15.1699 24.4776 15.332 24.4454 15.4832 24.3827C15.6344 24.3201 15.7718 24.2283 15.8875 24.1126C16.0032 23.9968 16.095 23.8595 16.1577 23.7083C16.2203 23.557 16.2525 23.395 16.2525 23.2313C16.2525 23.0677 16.2203 22.9056 16.1577 22.7544C16.095 22.6032 16.0032 22.4658 15.8875 22.3501L9.7875 16.2501H23.75C24.4375 16.2501 25 15.6876 25 15.0001C25 14.3126 24.4375 13.7501 23.75 13.7501Z" fill="black"/>
</svg>
