<svg width="30" height="30" viewBox="0 0 30 30" fill="none" xmlns="http://www.w3.org/2000/svg">
<path d="M6.24997 16.2499H20.2125L14.1125 22.3499C13.625 22.8374 13.625 23.6374 14.1125 24.1249C14.2281 24.2408 14.3655 24.3327 14.5167 24.3955C14.6679 24.4582 14.83 24.4905 14.9937 24.4905C15.1574 24.4905 15.3195 24.4582 15.4708 24.3955C15.622 24.3327 15.7593 24.2408 15.875 24.1249L24.1125 15.8874C24.2284 15.7718 24.3203 15.6344 24.383 15.4832C24.4457 15.332 24.478 15.1699 24.478 15.0062C24.478 14.8425 24.4457 14.6804 24.383 14.5291C24.3203 14.3779 24.2284 14.2406 24.1125 14.1249L15.875 5.88742C15.7592 5.7717 15.6219 5.6799 15.4707 5.61727C15.3194 5.55463 15.1574 5.5224 14.9937 5.5224C14.8301 5.5224 14.668 5.55463 14.5168 5.61727C14.3656 5.6799 14.2282 5.7717 14.1125 5.88742C13.9967 6.00315 13.9049 6.14054 13.8423 6.29174C13.7797 6.44295 13.7474 6.60501 13.7474 6.76867C13.7474 6.93234 13.7797 7.0944 13.8423 7.2456C13.9049 7.39681 13.9967 7.5342 14.1125 7.64993L20.2125 13.7499L6.24997 13.7499C5.56247 13.7499 4.99997 14.3124 4.99997 14.9999C4.99997 15.6874 5.56247 16.2499 6.24997 16.2499Z" fill="black"/>
</svg>
