<svg width="104" height="19" viewBox="0 0 104 19" fill="none" xmlns="http://www.w3.org/2000/svg">
<path d="M9 2.62109C10.4609 2.62109 11.707 2.875 12.7383 3.38281V6.96875L12.7148 6.99219C12.2773 6.32031 11.3555 5.875 9.94922 5.65625C9.53516 5.58594 9.01172 5.55078 8.37891 5.55078C7.74609 5.55078 7.125 5.67188 6.51562 5.91406C5.90625 6.14844 5.40625 6.48438 5.01562 6.92188C4.25781 7.77344 3.87891 8.98828 3.87891 10.5664C3.87891 12.4023 4.35938 13.7695 5.32031 14.668C6.11719 15.418 7.17188 15.793 8.48438 15.793C9.96875 15.793 11.1719 15.4766 12.0938 14.8438C12.4297 14.6172 12.7148 14.3359 12.9492 14L12.9844 14.0234V17.3047C11.7891 18.2969 10.1797 18.793 8.15625 18.793C5.77344 18.793 3.90625 18.0352 2.55469 16.5195C1.25781 15.0742 0.609375 13.1602 0.609375 10.7773C0.609375 8.25391 1.32031 6.26562 2.74219 4.8125C4.17969 3.35156 6.26562 2.62109 9 2.62109ZM14.7539 12.4414C14.7539 11.582 14.8984 10.7617 15.1875 9.98047C15.4844 9.19141 15.9062 8.50391 16.4531 7.91797C17.6484 6.65234 19.1992 6.01953 21.1055 6.01953C23.0039 6.01953 24.5117 6.61719 25.6289 7.8125C26.6992 8.95312 27.2344 10.4336 27.2344 12.2539C27.2344 14.0742 26.6836 15.582 25.582 16.7773C24.418 18.043 22.875 18.6758 20.9531 18.6758C18.9688 18.6758 17.4141 18.0547 16.2891 16.8125C15.2656 15.6797 14.7539 14.2227 14.7539 12.4414ZM17.6016 12.3711C17.6016 12.8633 17.6836 13.3398 17.8477 13.8008C18.0117 14.2617 18.2461 14.6562 18.5508 14.9844C19.1992 15.6953 20.0508 16.0508 21.1055 16.0508C22.082 16.0508 22.8516 15.7031 23.4141 15.0078C23.9609 14.3359 24.2344 13.4609 24.2344 12.3828C24.2344 11.2891 23.9531 10.4062 23.3906 9.73438C22.7891 9.01562 21.9648 8.65625 20.918 8.65625C19.8555 8.65625 19.0234 9.03906 18.4219 9.80469C17.875 10.5078 17.6016 11.3633 17.6016 12.3711ZM29.3086 2.76172C29.9336 1.78516 30.5859 0.925781 31.2656 0.183594L33.7852 2.16406C33.4492 2.57812 33.1367 2.98438 32.8477 3.38281C32.8477 3.38281 32.5469 3.80859 31.9453 4.66016L29.3086 2.76172ZM32.3906 17.1875C32.3906 17.8594 32.4062 18.2969 32.4375 18.5H29.4609V6.25391H32.3906V17.1875ZM38.7891 17C38.7891 17.6875 38.8203 18.1875 38.8828 18.5H35.9414V6.25391H38.7891V7.29688C39.8203 6.44531 40.9219 6.01953 42.0938 6.01953C43.375 6.01953 44.3984 6.45703 45.1641 7.33203C45.9297 8.19922 46.3125 9.34375 46.3125 10.7656V15.4297C46.3125 16.75 46.332 17.543 46.3711 17.8086C46.4102 18.0742 46.4609 18.2461 46.5234 18.3242C46.5938 18.4023 46.6523 18.4727 46.6992 18.5352L46.6758 18.582C46.043 18.5273 45.582 18.5 45.293 18.5H44.4727C44.2227 18.5 43.8867 18.5117 43.4648 18.5352V12.1484C43.4648 9.85938 42.7695 8.71484 41.3789 8.71484C40.3477 8.71484 39.4844 9.24609 38.7891 10.3086V17ZM59.8828 17.3633C59.3125 17.8164 58.5703 18.168 57.6562 18.418C56.7422 18.668 55.6172 18.793 54.2812 18.793C52.9531 18.793 51.5391 18.6719 50.0391 18.4297V2.98438C51.5547 2.74219 52.8672 2.62109 53.9766 2.62109C55.0938 2.62109 56.0078 2.72656 56.7188 2.9375C57.4375 3.14844 58.0234 3.43359 58.4766 3.79297C59.3672 4.48828 59.8125 5.39062 59.8125 6.5C59.8125 7.60156 59.4102 8.51562 58.6055 9.24219C59.5586 9.53906 60.2969 10.1016 60.8203 10.9297C61.2969 11.6719 61.5352 12.4961 61.5352 13.4023C61.5352 14.3008 61.4023 15.0703 61.1367 15.7109C60.8789 16.3516 60.4609 16.9023 59.8828 17.3633ZM53.1445 8.80859C53.4727 8.86328 53.8828 8.89062 54.375 8.89062C54.8672 8.89062 55.2695 8.82812 55.582 8.70312C55.9023 8.57031 56.1484 8.40625 56.3203 8.21094C56.6016 7.89062 56.7422 7.44531 56.7422 6.875C56.7422 5.67969 56.0391 5.08203 54.6328 5.08203C54.0391 5.08203 53.543 5.10547 53.1445 5.15234V8.80859ZM54.8789 11.3164C54.2227 11.3164 53.6445 11.3594 53.1445 11.4453V16.0508C53.6914 16.1914 54.2656 16.2617 54.8672 16.2617C55.4688 16.2617 55.9961 16.1914 56.4492 16.0508C56.9102 15.9023 57.2969 15.7031 57.6094 15.4531C58.2422 14.9375 58.5586 14.2812 58.5586 13.4844C58.5586 12.0391 57.332 11.3164 54.8789 11.3164ZM71.8711 17.7734C70.7617 18.375 69.7578 18.6758 68.8594 18.6758C67.9609 18.6758 67.1914 18.5938 66.5508 18.4297C65.9102 18.2578 65.3672 18.0078 64.9219 17.6797C64.0156 17.0156 63.5625 16.0547 63.5625 14.7969C63.5625 13.6719 64.1172 12.7344 65.2266 11.9844C66.4297 11.1719 68.0625 10.7656 70.125 10.7656L70.5938 10.7773C70.6875 10.7852 70.793 10.793 70.9102 10.8008C71.0273 10.8008 71.1328 10.8086 71.2266 10.8242C71.1641 9.57422 70.625 8.84375 69.6094 8.63281C69.2734 8.5625 68.9141 8.52734 68.5312 8.52734C68.1562 8.52734 67.7852 8.5625 67.418 8.63281C67.0586 8.69531 66.707 8.78125 66.3633 8.89062C65.6055 9.13281 65.0625 9.41016 64.7344 9.72266L64.6992 9.69922L64.3477 7.10938C65.7305 6.38281 67.2422 6.01953 68.8828 6.01953C71.4297 6.01953 73.0586 6.9375 73.7695 8.77344C73.9961 9.35938 74.1094 10.0195 74.1094 10.7539V14.9961C74.1094 15.9023 74.4297 16.5195 75.0703 16.8477L72.9492 18.793C72.5039 18.5586 72.1445 18.2188 71.8711 17.7734ZM71.2383 12.9336C71.0273 12.8945 70.8086 12.875 70.582 12.875H70.1133C68.3867 12.875 67.2891 13.2578 66.8203 14.0234C66.6797 14.25 66.6094 14.4883 66.6094 14.7383C66.6094 14.9883 66.6523 15.2109 66.7383 15.4062C66.832 15.5938 66.9844 15.75 67.1953 15.875C67.6016 16.1094 68.2031 16.2266 69 16.2266C69.8047 16.2266 70.5547 16.0352 71.25 15.6523C71.2422 15.5664 71.2383 15.4766 71.2383 15.3828V12.9336ZM86.1797 17.8438C85.1875 18.3984 84.1953 18.6758 83.2031 18.6758C82.2109 18.6758 81.3438 18.5195 80.6016 18.207C79.8594 17.8945 79.2266 17.4648 78.7031 16.918C77.625 15.793 77.0859 14.332 77.0859 12.5352C77.0859 10.6758 77.7109 9.12891 78.9609 7.89453C80.2188 6.64453 81.8281 6.01953 83.7891 6.01953C84.3906 6.01953 84.9805 6.09766 85.5586 6.25391V1.03906H88.4297V13.5664C88.4297 14.6055 88.4766 15.2852 88.5703 15.6055C88.6719 15.9258 88.7812 16.1602 88.8984 16.3086C89.0234 16.457 89.1797 16.5977 89.3672 16.7305L87.1641 18.6758C86.7578 18.457 86.4297 18.1797 86.1797 17.8438ZM83.7539 15.9805C84.4102 15.9805 85.0117 15.8555 85.5586 15.6055V9.11328C85.0117 8.88672 84.418 8.77344 83.7773 8.77344C83.1367 8.77344 82.5859 8.85938 82.125 9.03125C81.6719 9.20312 81.2812 9.44141 80.9531 9.74609C80.2656 10.3867 79.9219 11.2188 79.9219 12.2422C79.9219 13.3594 80.2344 14.25 80.8594 14.9141C81.5312 15.625 82.4961 15.9805 83.7539 15.9805ZM91.2305 12.4766C91.2305 11.5625 91.3867 10.7148 91.6992 9.93359C92.0117 9.15234 92.4531 8.46875 93.0234 7.88281C94.2422 6.64062 95.8359 6.01953 97.8047 6.01953C99.4688 6.01953 100.805 6.57031 101.812 7.67188C102.805 8.73438 103.301 10.0703 103.301 11.6797C103.301 12.2969 103.254 12.7188 103.16 12.9453C102.379 13.1641 100.789 13.2734 98.3906 13.2734H94.2656C94.4688 14.1094 94.9414 14.7617 95.6836 15.2305C96.4258 15.6914 97.3906 15.9219 98.5781 15.9219C99.8203 15.9219 100.887 15.6992 101.777 15.2539C102.012 15.1367 102.188 15.0273 102.305 14.9258C102.289 15.2539 102.27 15.5898 102.246 15.9336L102.117 17.7617C101.523 18.168 100.562 18.4492 99.2344 18.6055C98.8438 18.6523 98.4688 18.6758 98.1094 18.6758C96.125 18.6758 94.4844 18.0977 93.1875 16.9414C91.8828 15.7773 91.2305 14.2891 91.2305 12.4766ZM100.184 11C99.8633 9.32031 98.9492 8.48047 97.4414 8.48047C96.2539 8.48047 95.3516 8.99219 94.7344 10.0156C94.5469 10.3281 94.4023 10.6719 94.3008 11.0469C94.4883 11.0547 94.7188 11.0625 94.9922 11.0703H95.8594C96.1484 11.0781 96.4258 11.082 96.6914 11.082H97.3594C97.7578 11.082 98.1484 11.0781 98.5312 11.0703L99.4922 11.0352C99.75 11.0273 99.9805 11.0156 100.184 11Z" fill="#D9D9D9"/>
</svg>
