<svg width="44" height="19" viewBox="0 0 44 19" fill="none" xmlns="http://www.w3.org/2000/svg">
<path d="M0.36 14V-9.53674e-07H2.92V12H9.12V14H0.36ZM15.6264 14.24C14.6664 14.24 13.7997 14.02 13.0264 13.58C12.2664 13.14 11.6597 12.5333 11.2064 11.76C10.7664 10.9733 10.5464 10.0667 10.5464 9.04C10.5464 8.01333 10.7731 7.11333 11.2264 6.34C11.6797 5.55333 12.2864 4.94 13.0464 4.5C13.8197 4.06 14.6864 3.84 15.6464 3.84C16.5931 3.84 17.4464 4.06 18.2064 4.5C18.9797 4.94 19.5864 5.55333 20.0264 6.34C20.4797 7.11333 20.7064 8.01333 20.7064 9.04C20.7064 10.0667 20.4797 10.9733 20.0264 11.76C19.5864 12.5333 18.9797 13.14 18.2064 13.58C17.4331 14.02 16.5731 14.24 15.6264 14.24ZM15.6264 12.02C16.2931 12.02 16.8731 11.7733 17.3664 11.28C17.8597 10.7733 18.1064 10.0267 18.1064 9.04C18.1064 8.05333 17.8597 7.31333 17.3664 6.82C16.8731 6.31333 16.2997 6.06 15.6464 6.06C14.9664 6.06 14.3797 6.31333 13.8864 6.82C13.4064 7.31333 13.1664 8.05333 13.1664 9.04C13.1664 10.0267 13.4064 10.7733 13.8864 11.28C14.3797 11.7733 14.9597 12.02 15.6264 12.02ZM26.5703 11.04C26.0903 11.04 25.6436 10.9867 25.2303 10.88L24.4903 11.62C24.717 11.74 25.0236 11.84 25.4103 11.92C25.797 12 26.4236 12.08 27.2903 12.16C28.6103 12.28 29.5703 12.5933 30.1703 13.1C30.7703 13.6067 31.0703 14.3067 31.0703 15.2C31.0703 15.7867 30.9103 16.34 30.5903 16.86C30.2703 17.3933 29.777 17.82 29.1103 18.14C28.4436 18.4733 27.5903 18.64 26.5503 18.64C25.137 18.64 23.997 18.3733 23.1303 17.84C22.2636 17.32 21.8303 16.5333 21.8303 15.48C21.8303 14.5867 22.2636 13.8133 23.1303 13.16C22.8636 13.04 22.6303 12.9133 22.4303 12.78C22.2436 12.6467 22.077 12.5067 21.9303 12.36V11.9L23.6703 10.06C22.897 9.38 22.5103 8.50667 22.5103 7.44C22.5103 6.77333 22.6703 6.16667 22.9903 5.62C23.3236 5.07333 23.7903 4.64 24.3903 4.32C24.9903 4 25.717 3.84 26.5703 3.84C27.1303 3.84 27.6503 3.92 28.1303 4.08H31.8903V5.64L30.1903 5.76C30.457 6.26667 30.5903 6.82667 30.5903 7.44C30.5903 8.10667 30.4303 8.71333 30.1103 9.26C29.7903 9.80667 29.3236 10.24 28.7103 10.56C28.1103 10.88 27.397 11.04 26.5703 11.04ZM26.5703 9.08C27.0903 9.08 27.517 8.94 27.8503 8.66C28.197 8.38 28.3703 7.98 28.3703 7.46C28.3703 6.94 28.197 6.54 27.8503 6.26C27.517 5.98 27.0903 5.84 26.5703 5.84C26.0236 5.84 25.5836 5.98 25.2503 6.26C24.917 6.54 24.7503 6.94 24.7503 7.46C24.7503 7.98 24.917 8.38 25.2503 8.66C25.5836 8.94 26.0236 9.08 26.5703 9.08ZM24.1703 15.22C24.1703 15.7133 24.397 16.08 24.8503 16.32C25.317 16.5733 25.8836 16.7 26.5503 16.7C27.1903 16.7 27.7103 16.5667 28.1103 16.3C28.5103 16.0467 28.7103 15.7 28.7103 15.26C28.7103 14.9 28.577 14.6 28.3103 14.36C28.057 14.12 27.5436 13.9733 26.7703 13.92C26.2236 13.88 25.717 13.82 25.2503 13.74C24.8636 13.9533 24.5836 14.1867 24.4103 14.44C24.2503 14.6933 24.1703 14.9533 24.1703 15.22ZM38.1264 14.24C37.1664 14.24 36.2997 14.02 35.5264 13.58C34.7664 13.14 34.1597 12.5333 33.7064 11.76C33.2664 10.9733 33.0464 10.0667 33.0464 9.04C33.0464 8.01333 33.2731 7.11333 33.7264 6.34C34.1797 5.55333 34.7864 4.94 35.5464 4.5C36.3197 4.06 37.1864 3.84 38.1464 3.84C39.0931 3.84 39.9464 4.06 40.7064 4.5C41.4797 4.94 42.0864 5.55333 42.5264 6.34C42.9797 7.11333 43.2064 8.01333 43.2064 9.04C43.2064 10.0667 42.9797 10.9733 42.5264 11.76C42.0864 12.5333 41.4797 13.14 40.7064 13.58C39.9331 14.02 39.0731 14.24 38.1264 14.24ZM38.1264 12.02C38.7931 12.02 39.3731 11.7733 39.8664 11.28C40.3597 10.7733 40.6064 10.0267 40.6064 9.04C40.6064 8.05333 40.3597 7.31333 39.8664 6.82C39.3731 6.31333 38.7997 6.06 38.1464 6.06C37.4664 6.06 36.8797 6.31333 36.3864 6.82C35.9064 7.31333 35.6664 8.05333 35.6664 9.04C35.6664 10.0267 35.9064 10.7733 36.3864 11.28C36.8797 11.7733 37.4597 12.02 38.1264 12.02Z" fill="black"/>
</svg>
