<svg width="19" height="19" viewBox="0 0 19 19" fill="none" xmlns="http://www.w3.org/2000/svg">
<path d="M7.58918 4.80067C8.54068 3.15198 9.01605 2.32764 9.72724 2.32764C10.4384 2.32764 10.9138 3.15198 11.8653 4.80067L12.1116 5.22736C12.382 5.69613 12.5172 5.93052 12.7274 6.08508C12.9377 6.23965 13.2006 6.29697 13.7262 6.41163L14.2039 6.51612C16.0513 6.92031 16.9743 7.12204 17.1943 7.80488C17.4136 8.487 16.7843 9.19887 15.5249 10.6219L15.1989 10.9898C14.8415 11.394 14.662 11.5964 14.5816 11.8461C14.5013 12.0964 14.5283 12.3664 14.5824 12.9055L14.6319 13.3968C14.8219 15.2958 14.9173 16.245 14.3421 16.6666C13.7668 17.0889 12.9017 16.7036 11.1729 15.9344L10.7245 15.7356C10.2334 15.5164 9.98783 15.4076 9.72724 15.4076C9.46665 15.4076 9.22107 15.5164 8.72918 15.7356L8.28234 15.9344C6.55282 16.7036 5.68768 17.0882 5.11318 16.6673C4.53717 16.245 4.63254 15.2958 4.82254 13.3968L4.87211 12.9062C4.92618 12.3664 4.95322 12.0964 4.87211 11.8468C4.7925 11.5964 4.61302 11.394 4.25555 10.9905L3.92962 10.6219C2.67022 9.19959 2.04089 8.48773 2.26018 7.80488C2.48022 7.12204 3.40393 6.91958 5.25136 6.51612L5.72899 6.41163C6.25393 6.29697 6.51602 6.23965 6.72705 6.08508C6.93732 5.93052 7.0725 5.69613 7.34286 5.22736L7.58918 4.80067Z" stroke="black" stroke-width="1.5"/>
</svg>
