<svg width="20" height="21" viewBox="0 0 20 21" fill="none" xmlns="http://www.w3.org/2000/svg">
<mask id="mask0_36_898" style="mask-type:luminance" maskUnits="userSpaceOnUse" x="0" y="1" width="20" height="19">
<path d="M10 18.8334C11.0946 18.8348 12.1786 18.6199 13.1898 18.2011C14.2011 17.7822 15.1195 17.1676 15.8925 16.3926C16.6675 15.6196 17.2821 14.7012 17.701 13.6899C18.1198 12.6787 18.3347 11.5946 18.3333 10.5001C18.3347 9.40554 18.1198 8.3215 17.7009 7.31027C17.2821 6.29904 16.6675 5.38055 15.8925 4.60759C15.1195 3.8326 14.2011 3.218 13.1898 2.79912C12.1786 2.38024 11.0946 2.16534 10 2.16676C8.90544 2.16536 7.82141 2.38028 6.81018 2.79916C5.79894 3.21804 4.88046 3.83262 4.1075 4.60759C3.33253 5.38055 2.71794 6.29904 2.29906 7.31027C1.88019 8.3215 1.66527 9.40554 1.66666 10.5001C1.66525 11.5946 1.88015 12.6787 2.29903 13.6899C2.71791 14.7012 3.33251 15.6196 4.1075 16.3926C4.88046 17.1676 5.79894 17.7821 6.81018 18.201C7.82141 18.6199 8.90544 18.8348 10 18.8334Z" fill="white" stroke="white" stroke-width="2" stroke-linejoin="round"/>
<path d="M6.66666 10.5L9.16666 13L14.1667 8" stroke="black" stroke-width="2" stroke-linecap="round" stroke-linejoin="round"/>
</mask>
<g mask="url(#mask0_36_898)">
<path d="M0 0.5H20V20.5H0V0.5Z" fill="#58BD7D"/>
</g>
</svg>
