<svg width="125" height="32" viewBox="0 0 125 32" fill="none" xmlns="http://www.w3.org/2000/svg">
<path d="M6.864 22.5H4.872V5.94H0.72V5.7H11.04V5.94H6.864V22.5ZM13.4456 5.892C15.3016 5.764 16.9416 5.7 18.3656 5.7C22.3176 5.7 24.2936 7.02 24.2936 9.66C24.2936 10.78 24.0216 11.78 23.4776 12.66C22.9336 13.54 21.9976 14.124 20.6696 14.412L25.4696 22.5H23.2376L18.5336 14.556H15.4376V22.5H13.4456V5.892ZM18.3656 5.94C17.4376 5.94 16.4616 5.996 15.4376 6.108V14.316H18.9896C21.2456 14.22 22.3736 12.684 22.3736 9.708C22.3736 8.492 22.0376 7.564 21.3656 6.924C20.6936 6.268 19.6936 5.94 18.3656 5.94ZM27.1877 22.5H26.8997L34.0757 5.7L34.3397 5.58L40.3877 22.5H38.3477L36.4757 17.22H29.4677L27.1877 22.5ZM33.3317 8.292L29.5637 16.98H36.4037L33.3317 8.292ZM52.107 5.7V5.94H44.547V13.62H51.555V13.86H44.547V22.5H42.555V5.7H52.107ZM64.1773 5.7V5.94H56.6173V13.62H63.6253V13.86H56.6173V22.5H54.6253V5.7H64.1773ZM66.6956 5.94V5.7H70.9676V5.94H69.7916V22.26H70.9676V22.5H66.6956V22.26H67.7996V5.94H66.6956ZM81.9979 22.596C79.0059 22.596 76.7899 21.748 75.3499 20.052C74.8379 19.444 74.4219 18.636 74.1019 17.628C73.7819 16.62 73.6219 15.396 73.6219 13.956C73.6219 12.516 73.8539 11.228 74.3179 10.092C74.7979 8.94 75.4459 8.052 76.2619 7.428C77.8459 6.26 79.7579 5.676 81.9979 5.676C82.6379 5.676 83.2619 5.732 83.8699 5.844C84.4779 5.94 84.9339 6.044 85.2379 6.156L85.6699 6.324L85.5979 6.564C84.5099 6.132 83.3099 5.916 81.9979 5.916C80.3019 5.916 78.8859 6.468 77.7499 7.572C76.8859 8.388 76.2779 9.588 75.9259 11.172C75.7179 12.068 75.6139 13.164 75.6139 14.46C75.6139 15.756 75.7979 16.956 76.1659 18.06C76.5339 19.148 76.9499 19.956 77.4139 20.484C77.8939 21.012 78.4699 21.436 79.1419 21.756C79.8139 22.06 80.3499 22.236 80.7499 22.284C81.1499 22.332 81.6299 22.356 82.1899 22.356C82.7659 22.356 83.4139 22.3 84.1339 22.188C84.8539 22.076 85.3979 21.972 85.7659 21.876L86.3179 21.708L86.3899 21.948C85.1739 22.38 83.7099 22.596 81.9979 22.596Z" fill="#D1D7E2"/>
<path d="M122.46 0.5L124.814 2.77228L96.5687 31.403L122.46 0.5Z" fill="#D1D7E2"/>
<path d="M101.367 2.90619L102.292 1.97826L123.186 24.6388L122.261 25.5667L101.367 2.90619Z" fill="#D1D7E2"/>
</svg>
