<svg width="40" height="40" viewBox="0 0 40 40" fill="none" xmlns="http://www.w3.org/2000/svg">
<rect width="40" height="40" rx="20" fill="#FF6F00"/>
<path d="M29.2129 28.8984C27.5996 26.1094 25.0137 24.2051 22.0176 23.5186C23.4413 22.9353 24.6182 21.8757 25.3474 20.521C26.0766 19.1662 26.3128 17.6003 26.0155 16.0907C25.7183 14.5811 24.9061 13.2216 23.7177 12.2444C22.5294 11.2673 21.0385 10.733 19.5 10.733C17.9615 10.733 16.4707 11.2673 15.2823 12.2444C14.0939 13.2216 13.2817 14.5811 12.9845 16.0907C12.6872 17.6003 12.9234 19.1662 13.6526 20.521C14.3818 21.8757 15.5587 22.9353 16.9824 23.5186C13.9902 24.2021 11.4004 26.1094 9.78711 28.8984C9.74041 28.9877 9.73001 29.0916 9.75808 29.1883C9.78615 29.2851 9.85053 29.3673 9.93775 29.4177C10.025 29.4681 10.1283 29.4829 10.2262 29.4589C10.324 29.4349 10.4088 29.3741 10.4629 29.2891C12.3711 25.9873 15.752 24.0156 19.5 24.0156C23.2481 24.0156 26.6289 25.9873 28.5371 29.2891C28.5714 29.3484 28.6206 29.3977 28.6799 29.4319C28.7392 29.4662 28.8065 29.4843 28.875 29.4844C28.9437 29.4846 29.0111 29.4664 29.0703 29.4316C29.1599 29.3798 29.2252 29.2945 29.2519 29.1945C29.2786 29.0946 29.2646 28.9881 29.2129 28.8984ZM13.6406 17.375C13.6406 16.2161 13.9843 15.0833 14.6281 14.1197C15.2719 13.1561 16.1871 12.4051 17.2577 11.9616C18.3284 11.5182 19.5065 11.4021 20.6431 11.6282C21.7797 11.8543 22.8238 12.4123 23.6432 13.2318C24.4627 14.0512 25.0207 15.0953 25.2468 16.2319C25.4729 17.3685 25.3568 18.5466 24.9134 19.6173C24.4699 20.6879 23.7189 21.6031 22.7553 22.2469C21.7917 22.8907 20.6589 23.2344 19.5 23.2344C17.9466 23.2326 16.4573 22.6147 15.3588 21.5162C14.2603 20.4177 13.6424 18.9284 13.6406 17.375Z" fill="black"/>
</svg>
