<svg width="25" height="25" viewBox="0 0 25 25" xmlns="http://www.w3.org/2000/svg">
<path d="M12.5 2.5C12.6657 2.5 12.8247 2.56585 12.9419 2.68306C13.0591 2.80027 13.125 2.95924 13.125 3.125V4.375C13.125 4.54076 13.0591 4.69973 12.9419 4.81694C12.8247 4.93415 12.6657 5 12.5 5C12.3342 5 12.1753 4.93415 12.058 4.81694C11.9408 4.69973 11.875 4.54076 11.875 4.375V3.125C11.875 2.95924 11.9408 2.80027 12.058 2.68306C12.1753 2.56585 12.3342 2.5 12.5 2.5ZM12.5 17.5C13.8261 17.5 15.0978 16.9732 16.0355 16.0355C16.9732 15.0979 17.5 13.8261 17.5 12.5C17.5 11.1739 16.9732 9.90215 16.0355 8.96447C15.0978 8.02678 13.8261 7.5 12.5 7.5C11.1739 7.5 9.90213 8.02678 8.96445 8.96447C8.02677 9.90215 7.49999 11.1739 7.49998 12.5C7.49999 13.8261 8.02677 15.0979 8.96445 16.0355C9.90213 16.9732 11.1739 17.5 12.5 17.5ZM12.5 16.25C11.5054 16.25 10.5516 15.8549 9.84834 15.1517C9.14507 14.4484 8.74998 13.4946 8.74998 12.5C8.74998 11.5054 9.14507 10.5516 9.84834 9.84835C10.5516 9.14509 11.5054 8.75 12.5 8.75C13.4945 8.75 14.4484 9.14509 15.1516 9.84835C15.8549 10.5516 16.25 11.5054 16.25 12.5C16.25 13.4946 15.8549 14.4484 15.1516 15.1517C14.4484 15.8549 13.4945 16.25 12.5 16.25ZM21.875 13.125C22.0407 13.125 22.1997 13.0592 22.3169 12.9419C22.4341 12.8247 22.5 12.6658 22.5 12.5C22.5 12.3342 22.4341 12.1753 22.3169 12.0581C22.1997 11.9408 22.0407 11.875 21.875 11.875H20.625C20.4592 11.875 20.3003 11.9408 20.183 12.0581C20.0658 12.1753 20 12.3342 20 12.5C20 12.6658 20.0658 12.8247 20.183 12.9419C20.3003 13.0592 20.4592 13.125 20.625 13.125H21.875ZM12.5 20C12.6657 20 12.8247 20.0658 12.9419 20.1831C13.0591 20.3003 13.125 20.4592 13.125 20.625V21.875C13.125 22.0408 13.0591 22.1997 12.9419 22.3169C12.8247 22.4342 12.6657 22.5 12.5 22.5C12.3342 22.5 12.1753 22.4342 12.058 22.3169C11.9408 22.1997 11.875 22.0408 11.875 21.875V20.625C11.875 20.4592 11.9408 20.3003 12.058 20.1831C12.1753 20.0658 12.3342 20 12.5 20ZM4.37499 13.125C4.54075 13.125 4.69972 13.0592 4.81693 12.9419C4.93414 12.8247 4.99999 12.6658 4.99999 12.5C4.99999 12.3342 4.93414 12.1753 4.81693 12.0581C4.69972 11.9408 4.54075 11.875 4.37499 11.875H3.07874C2.91298 11.875 2.754 11.9408 2.63679 12.0581C2.51958 12.1753 2.45374 12.3342 2.45374 12.5C2.45374 12.6658 2.51958 12.8247 2.63679 12.9419C2.754 13.0592 2.91298 13.125 3.07874 13.125H4.37499ZM5.18249 5.1825C5.24054 5.1243 5.30951 5.07812 5.38544 5.04661C5.46137 5.0151 5.54278 4.99888 5.62499 4.99888C5.70719 4.99888 5.7886 5.0151 5.86453 5.04661C5.94046 5.07812 6.00943 5.1243 6.06749 5.1825L7.31749 6.4325C7.43484 6.54986 7.50078 6.70903 7.50078 6.875C7.50078 7.04097 7.43484 7.20014 7.31749 7.3175C7.20013 7.43486 7.04096 7.50079 6.87499 7.50079C6.70902 7.50079 6.54984 7.43486 6.43249 7.3175L5.18249 6.0675C5.12428 6.00944 5.0781 5.94047 5.04659 5.86454C5.01509 5.78861 4.99887 5.70721 4.99887 5.625C4.99887 5.54279 5.01509 5.46139 5.04659 5.38546C5.0781 5.30953 5.12428 5.24056 5.18249 5.1825ZM6.06749 19.8175C5.95013 19.9349 5.79096 20.0008 5.62499 20.0008C5.45902 20.0008 5.29984 19.9349 5.18249 19.8175C5.06513 19.7001 4.9992 19.541 4.9992 19.375C4.9992 19.209 5.06513 19.0499 5.18249 18.9325L6.43249 17.6825C6.54984 17.5651 6.70902 17.4992 6.87499 17.4992C7.04096 17.4992 7.20013 17.5651 7.31749 17.6825C7.43484 17.7999 7.50078 17.959 7.50078 18.125C7.50078 18.291 7.43484 18.4501 7.31749 18.5675L6.06749 19.8175ZM19.8175 5.1825C19.7594 5.1243 19.6905 5.07812 19.6145 5.04661C19.5386 5.0151 19.4572 4.99888 19.375 4.99888C19.2928 4.99888 19.2114 5.0151 19.1354 5.04661C19.0595 5.07812 18.9905 5.1243 18.9325 5.1825L17.6825 6.4325C17.5651 6.54986 17.4992 6.70903 17.4992 6.875C17.4992 7.04097 17.5651 7.20014 17.6825 7.3175C17.7998 7.43486 17.959 7.50079 18.125 7.50079C18.291 7.50079 18.4501 7.43486 18.5675 7.3175L19.8175 6.0675C19.8757 6.00944 19.9219 5.94047 19.9534 5.86454C19.9849 5.78861 20.0011 5.70721 20.0011 5.625C20.0011 5.54279 19.9849 5.46139 19.9534 5.38546C19.9219 5.30953 19.8757 5.24056 19.8175 5.1825ZM18.9325 19.8175C19.0498 19.9349 19.209 20.0008 19.375 20.0008C19.541 20.0008 19.7001 19.9349 19.8175 19.8175C19.9348 19.7001 20.0008 19.541 20.0008 19.375C20.0008 19.209 19.9348 19.0499 19.8175 18.9325L18.5675 17.6825C18.4501 17.5651 18.291 17.4992 18.125 17.4992C17.959 17.4992 17.7998 17.5651 17.6825 17.6825C17.5651 17.7999 17.4992 17.959 17.4992 18.125C17.4992 18.291 17.5651 18.4501 17.6825 18.5675L18.9325 19.8175Z" />
</svg>
